<?xml version="1.0" encoding="UTF-8"?>
<svg width="122px" height="104px" viewBox="0 0 122 104" version="1.1" xmlns="http://www.w3.org/2000/svg" xmlns:xlink="http://www.w3.org/1999/xlink">
    <!-- Generator: Sketch 55 (78076) - https://sketchapp.com -->
    <title>暂无账单</title>
    <desc>Created with Sketch.</desc>
    <g id="Page-1" stroke="none" stroke-width="1" fill="none" fill-rule="evenodd">
        <g id="空白页" transform="translate(-194.000000, -508.000000)">
            <g id="暂无账单" transform="translate(194.000000, 508.000000)">
                <g id="分组-11">
                    <g id="背景/线" fill="#C3CBD6">
                        <g id="-">
                            <g id="编组" transform="translate(14.200000, 9.200000)" fill-rule="nonzero">
                                <path d="M0.8,73.1 C0.3581722,73.1 -5.68434189e-14,72.7418278 -5.68434189e-14,72.3 C-5.68434189e-14,71.8581722 0.3581722,71.5 0.8,71.5 L70.8,71.5 C71.2418278,71.5 71.6,71.8581722 71.6,72.3 C71.6,72.7418278 71.2418278,73.1 70.8,73.1 L0.8,73.1 Z M74.8,73.1 C74.3581722,73.1 74,72.7418278 74,72.3 C74,71.8581722 74.3581722,71.5 74.8,71.5 L77.3,71.5 C77.7418278,71.5 78.1,71.8581722 78.1,72.3 C78.1,72.7418278 77.7418278,73.1 77.3,73.1 L74.8,73.1 Z M83.8,73.1 C83.3581722,73.1 83,72.7418278 83,72.3 C83,71.8581722 83.3581722,71.5 83.8,71.5 L92.8,71.5 C93.2418278,71.5 93.6,71.8581722 93.6,72.3 C93.6,72.7418278 93.2418278,73.1 92.8,73.1 L83.8,73.1 Z M23.8,80.6 C23.3581722,80.6 23,80.2418278 23,79.8 C23,79.3581722 23.3581722,79 23.8,79 L30.8,79 C31.2418278,79 31.6,79.3581722 31.6,79.8 C31.6,80.2418278 31.2418278,80.6 30.8,80.6 L23.8,80.6 Z M35.3,80.6 C34.8581722,80.6 34.5,80.2418278 34.5,79.8 C34.5,79.3581722 34.8581722,79 35.3,79 L65.8,79 C66.2418278,79 66.6,79.3581722 66.6,79.8 C66.6,80.2418278 66.2418278,80.6 65.8,80.6 L35.3,80.6 Z M80,52.8 C80,51.7333333 81.6,51.7333333 81.6,52.8 L81.6,55.8 C81.6,56.2418278 81.2418278,56.6 80.8,56.6 L77.8,56.6 C76.7333333,56.6 76.7333333,55 77.8,55 L80,55 L80,52.8 Z M81.6,58.8 C81.6,59.8666667 80,59.8666667 80,58.8 L80,55.8 C80,55.3581722 80.3581722,55 80.8,55 L83.8,55 C84.8666667,55 84.8666667,56.6 83.8,56.6 L81.6,56.6 L81.6,58.8 Z M4,28.8 C4,27.7333333 5.6,27.7333333 5.6,28.8 L5.6,31.8 C5.6,32.2418278 5.2418278,32.6 4.8,32.6 L1.8,32.6 C0.733333333,32.6 0.733333333,31 1.8,31 L4,31 L4,28.8 Z M78.1,3.5 L80.8,3.5 C81.8666667,3.5 81.8666667,5.1 80.8,5.1 L78.1,5.1 L78.1,7.8 C78.1,8.86666667 76.5,8.86666667 76.5,7.8 L76.5,5.1 L73.8,5.1 C72.7333333,5.1 72.7333333,3.5 73.8,3.5 L76.5,3.5 L76.5,0.8 C76.5,-0.266666667 78.1,-0.266666667 78.1,0.8 L78.1,3.5 Z M5.6,34.8 C5.6,35.8666667 4,35.8666667 4,34.8 L4,31.8 C4,31.3581722 4.3581722,31 4.8,31 L7.8,31 C8.86666667,31 8.86666667,32.6 7.8,32.6 L5.6,32.6 L5.6,34.8 Z" id="Path-2"></path>
                                <path d="M14.0928932,61.1431458 C14.5642977,60.6717412 15.2714045,61.378848 14.8,61.8502525 L13.7393398,62.9109127 C13.5440777,63.1061748 13.2274952,63.1061748 13.032233,62.9109127 L11.9715729,61.8502525 C11.5001684,61.378848 12.2072751,60.6717412 12.6786797,61.1431458 L13.3857864,61.8502525 L14.0928932,61.1431458 Z M12.6786797,63.9715729 C12.2072751,64.4429774 11.5001684,63.7358706 11.9715729,63.2644661 L13.032233,62.2038059 C13.2274952,62.0085438 13.5440777,62.0085438 13.7393398,62.2038059 L14.8,63.2644661 C15.2714045,63.7358706 14.5642977,64.4429774 14.0928932,63.9715729 L13.3857864,63.2644661 L12.6786797,63.9715729 Z M22.9213203,8.8 C23.3927249,8.32859548 24.0998316,9.03570226 23.6284271,9.50710678 L22.567767,10.567767 C22.3725048,10.7630291 22.0559223,10.7630291 21.8606602,10.567767 L20.8,9.50710678 C20.3285955,9.03570226 21.0357023,8.32859548 21.5071068,8.8 L22.2142136,9.50710678 L22.9213203,8.8 Z M21.5071068,11.6284271 C21.0357023,12.0998316 20.3285955,11.3927249 20.8,10.9213203 L21.8606602,9.86066017 C22.0559223,9.66539803 22.3725048,9.66539803 22.567767,9.86066017 L23.6284271,10.9213203 C24.0998316,11.3927249 23.3927249,12.0998316 22.9213203,11.6284271 L22.2142136,10.9213203 L21.5071068,11.6284271 Z" id="Path复制"></path>
                            </g>
                        </g>
                    </g>
                    <g id="编组" transform="translate(35.000000, 31.000000)">
                        <path d="M35,21.7 L35,39 C35,41.209 36.791,43 39,43 C41.209,43 43,41.209 43,39 L43,34 L35,34 L35,6 L35,4 C35,1.790861 33.209139,-4.05812251e-16 31,0 L31,0 C28.790861,4.05812251e-16 27,1.790861 27,4 L27,6 L2.04636308e-12,6 L2.04636308e-12,37 C1.58806301e-12,40.313 2.687,43 6,43 L39,43" id="Stroke-1-Copy" stroke="#C3CBD6" stroke-width="1.6" fill="#FFFFFF" stroke-linecap="round" stroke-linejoin="round" transform="translate(21.500000, 21.500000) rotate(-180.000000) translate(-21.500000, -21.500000) "></path>
                        <path d="M16,34 L16,34 L47,34 L47,34 C44.790861,34 43,35.790861 43,38 L43,43 L12,43 L12,38 C12,35.790861 13.790861,34 16,34 Z" id="Stroke-1-Copy复制" stroke="#C3CBD6" stroke-width="1.6" fill="#F5F7F9" stroke-linecap="round" stroke-linejoin="round" transform="translate(29.500000, 38.500000) rotate(-180.000000) translate(-29.500000, -38.500000) "></path>
                        <path d="M-4.4408921e-16,5 C-9.99200722e-14,7.209 1.791,9 4,9 C6.209,9 8,7.209 8,5 L8,1.14575016e-13 L-4.4408921e-16,1.14575016e-13 L-4.4408921e-16,5 Z" id="Stroke-1" stroke="#C3CBD6" stroke-width="1.6" fill="#F5F7F9" stroke-linecap="round" stroke-linejoin="round" transform="translate(4.000000, 4.500000) rotate(-180.000000) translate(-4.000000, -4.500000) "></path>
                        <path d="M16,27.5 L36,27.5" id="Path-9-Copy" stroke="#C3CBD6" stroke-width="1.4" stroke-linecap="round" stroke-linejoin="round"></path>
                        <path d="M29,22.5 L35.5,22.5" id="Path复制" stroke="#C3CBD6" stroke-width="1.4" stroke-linecap="round" stroke-linejoin="round"></path>
                        <path d="M29,17.5 L35.5,17.5" id="Path复制-2" stroke="#C3CBD6" stroke-width="1.4" stroke-linecap="round" stroke-linejoin="round"></path>
                        <path d="M29,12.5 L35.5,12.5" id="Path" stroke="#C3CBD6" stroke-width="1.4" stroke-linecap="round" stroke-linejoin="round"></path>
                        <path d="M25,16.3603604 C25,17.8378378 24.661398,18.8828829 23.9861977,19.4954955 C23.3931434,20.036036 22.3853517,20.3363363 20.9608192,20.3983984 L20.9608192,21.4674675 C20.9608192,21.7617618 20.7223954,22 20.4258682,22 L20.0872663,22 C19.7927427,22 19.5543188,21.7617618 19.5543188,21.4674675 L19.5543188,20.3983984 C18.3762244,20.3363363 17.4986643,20.03003 16.9216385,19.4774775 C16.3085485,18.9029029 16,18 16,16.7747748 L16,16.5085085 C16,16.2142142 16.2404274,15.975976 16.534951,15.975976 L18.9652716,15.975976 C19.2597952,15.975976 19.5002226,16.2142142 19.5002226,16.5085085 L19.5002226,17.045045 C19.5002226,17.7657658 19.7967498,18.1261261 20.3938112,18.1261261 C20.9888691,18.1261261 21.2853963,17.7417417 21.2853963,16.972973 C21.2853963,16.6006006 21.2112645,16.3243243 21.0690116,16.1441441 C20.9828584,16.036036 20.7965272,15.8978979 20.5060107,15.7297297 C20.1193232,15.5635636 19.5182547,15.2852853 18.6967943,14.9009009 C17.8773375,14.5165165 17.3163402,14.1741742 17.0138023,13.8738739 C16.4107302,13.2732733 16.1101959,12.4444444 16.1101959,11.3873874 C16.1101959,8.85285285 17.2582369,7.51751752 19.5543188,7.38738739 L19.5543188,6.53253253 C19.5543188,6.23823824 19.7927427,6 20.0872663,6 L20.4258682,6 C20.7223954,6 20.9608192,6.23823824 20.9608192,6.53253253 L20.9608192,7.38738739 C22.4154052,7.44544545 23.431211,7.84984985 24.0082369,8.59459459 C24.3969279,9.10910911 24.6173197,9.84584585 24.6654052,10.8008008 C24.6694123,10.8988989 24.6734194,10.8208208 24.6734194,11.1731732 C24.675423,11.4694695 24.4349955,11.7137137 24.140472,11.7137137 L21.8203473,11.7137137 C21.5238201,11.7137137 21.2853963,11.4754755 21.2853963,11.1811812 L21.2853963,10.7027027 C21.2853963,10.006006 21.002894,9.65565566 20.4378896,9.65565566 C19.8849065,9.65565566 19.608415,9.98798799 19.608415,10.6466466 C19.608415,11.2972973 20.0732413,11.8258258 21.0008905,12.2342342 C22.5576581,12.9049049 23.4252004,13.3033033 23.6075245,13.4234234 C24.5351736,14.0940941 25,15.0730731 25,16.3603604" id="Fill-3" fill="#C3CBD6"></path>
                    </g>
                </g>
            </g>
        </g>
    </g>
</svg>