<?xml version="1.0" encoding="UTF-8"?>
<svg width="122px" height="104px" viewBox="0 0 122 104" version="1.1" xmlns="http://www.w3.org/2000/svg" xmlns:xlink="http://www.w3.org/1999/xlink">
    <!-- Generator: Sketch 55 (78076) - https://sketchapp.com -->
    <title>暂无收藏</title>
    <desc>Created with Sketch.</desc>
    <g id="Page-1" stroke="none" stroke-width="1" fill="none" fill-rule="evenodd">
        <g id="空白页" transform="translate(-656.000000, -508.000000)">
            <g id="暂无收藏" transform="translate(656.000000, 508.000000)">
                <g id="分组-4">
                    <g id="背景/线" fill="#C3CBD6">
                        <g id="-">
                            <g id="编组" transform="translate(14.200000, 9.200000)" fill-rule="nonzero">
                                <path d="M0.8,73.1 C0.3581722,73.1 -5.68434189e-14,72.7418278 -5.68434189e-14,72.3 C-5.68434189e-14,71.8581722 0.3581722,71.5 0.8,71.5 L70.8,71.5 C71.2418278,71.5 71.6,71.8581722 71.6,72.3 C71.6,72.7418278 71.2418278,73.1 70.8,73.1 L0.8,73.1 Z M74.8,73.1 C74.3581722,73.1 74,72.7418278 74,72.3 C74,71.8581722 74.3581722,71.5 74.8,71.5 L77.3,71.5 C77.7418278,71.5 78.1,71.8581722 78.1,72.3 C78.1,72.7418278 77.7418278,73.1 77.3,73.1 L74.8,73.1 Z M83.8,73.1 C83.3581722,73.1 83,72.7418278 83,72.3 C83,71.8581722 83.3581722,71.5 83.8,71.5 L92.8,71.5 C93.2418278,71.5 93.6,71.8581722 93.6,72.3 C93.6,72.7418278 93.2418278,73.1 92.8,73.1 L83.8,73.1 Z M23.8,80.6 C23.3581722,80.6 23,80.2418278 23,79.8 C23,79.3581722 23.3581722,79 23.8,79 L30.8,79 C31.2418278,79 31.6,79.3581722 31.6,79.8 C31.6,80.2418278 31.2418278,80.6 30.8,80.6 L23.8,80.6 Z M35.3,80.6 C34.8581722,80.6 34.5,80.2418278 34.5,79.8 C34.5,79.3581722 34.8581722,79 35.3,79 L65.8,79 C66.2418278,79 66.6,79.3581722 66.6,79.8 C66.6,80.2418278 66.2418278,80.6 65.8,80.6 L35.3,80.6 Z M80,52.8 C80,51.7333333 81.6,51.7333333 81.6,52.8 L81.6,55.8 C81.6,56.2418278 81.2418278,56.6 80.8,56.6 L77.8,56.6 C76.7333333,56.6 76.7333333,55 77.8,55 L80,55 L80,52.8 Z M81.6,58.8 C81.6,59.8666667 80,59.8666667 80,58.8 L80,55.8 C80,55.3581722 80.3581722,55 80.8,55 L83.8,55 C84.8666667,55 84.8666667,56.6 83.8,56.6 L81.6,56.6 L81.6,58.8 Z M4,28.8 C4,27.7333333 5.6,27.7333333 5.6,28.8 L5.6,31.8 C5.6,32.2418278 5.2418278,32.6 4.8,32.6 L1.8,32.6 C0.733333333,32.6 0.733333333,31 1.8,31 L4,31 L4,28.8 Z M78.1,3.5 L80.8,3.5 C81.8666667,3.5 81.8666667,5.1 80.8,5.1 L78.1,5.1 L78.1,7.8 C78.1,8.86666667 76.5,8.86666667 76.5,7.8 L76.5,5.1 L73.8,5.1 C72.7333333,5.1 72.7333333,3.5 73.8,3.5 L76.5,3.5 L76.5,0.8 C76.5,-0.266666667 78.1,-0.266666667 78.1,0.8 L78.1,3.5 Z M5.6,34.8 C5.6,35.8666667 4,35.8666667 4,34.8 L4,31.8 C4,31.3581722 4.3581722,31 4.8,31 L7.8,31 C8.86666667,31 8.86666667,32.6 7.8,32.6 L5.6,32.6 L5.6,34.8 Z" id="Path-2"></path>
                                <path d="M14.0928932,61.1431458 C14.5642977,60.6717412 15.2714045,61.378848 14.8,61.8502525 L13.7393398,62.9109127 C13.5440777,63.1061748 13.2274952,63.1061748 13.032233,62.9109127 L11.9715729,61.8502525 C11.5001684,61.378848 12.2072751,60.6717412 12.6786797,61.1431458 L13.3857864,61.8502525 L14.0928932,61.1431458 Z M12.6786797,63.9715729 C12.2072751,64.4429774 11.5001684,63.7358706 11.9715729,63.2644661 L13.032233,62.2038059 C13.2274952,62.0085438 13.5440777,62.0085438 13.7393398,62.2038059 L14.8,63.2644661 C15.2714045,63.7358706 14.5642977,64.4429774 14.0928932,63.9715729 L13.3857864,63.2644661 L12.6786797,63.9715729 Z M22.9213203,8.8 C23.3927249,8.32859548 24.0998316,9.03570226 23.6284271,9.50710678 L22.567767,10.567767 C22.3725048,10.7630291 22.0559223,10.7630291 21.8606602,10.567767 L20.8,9.50710678 C20.3285955,9.03570226 21.0357023,8.32859548 21.5071068,8.8 L22.2142136,9.50710678 L22.9213203,8.8 Z M21.5071068,11.6284271 C21.0357023,12.0998316 20.3285955,11.3927249 20.8,10.9213203 L21.8606602,9.86066017 C22.0559223,9.66539803 22.3725048,9.66539803 22.567767,9.86066017 L23.6284271,10.9213203 C24.0998316,11.3927249 23.3927249,12.0998316 22.9213203,11.6284271 L22.2142136,10.9213203 L21.5071068,11.6284271 Z" id="Path复制"></path>
                            </g>
                        </g>
                    </g>
                    <g id="分组" transform="translate(18.968235, 22.260607)" stroke="#C3CBD6" stroke-linecap="round" stroke-linejoin="round">
                        <path d="M30.6039766,45.2339329 L24.6526843,48.3627124 C22.6500352,49.4155674 20.1730597,48.6456071 19.1202047,46.6429579 C18.7009524,45.8454925 18.5562788,44.9320594 18.7085811,44.0440686 L19.8451768,37.4172073 C20.0120906,36.4440251 19.6894452,35.4510245 18.9823869,34.761813 L14.1676903,30.0686438 C12.5475131,28.4893613 12.5143614,25.8956868 14.0936438,24.2755096 C14.7225224,23.6303466 15.5465423,23.2104875 16.4381357,23.0809314 L23.0918828,22.1140853 C24.0690132,21.9720999 24.91371,21.3583918 25.350696,20.4729614 L28.3263422,14.4436438 C29.3276667,12.4147386 31.7841533,11.5817199 33.8130585,12.5830445 C34.6209792,12.9817772 35.2749251,13.6357231 35.6736578,14.4436438 L38.649304,20.4729614 C39.08629,21.3583918 39.9309868,21.9720999 40.9081172,22.1140853 L47.5618643,23.0809314 C49.8008941,23.4062814 51.352238,25.4851221 51.026888,27.7241519 C50.8973319,28.6157453 50.4774727,29.4397652 49.8323097,30.0686438 L45.0176131,34.761813 C44.3105548,35.4510245 43.9879094,36.4440251 44.1548232,37.4172073 L45.2914189,44.0440686 C45.6738908,46.2740512 44.1761875,48.3918641 41.9462049,48.7743361 C41.0582142,48.9266384 40.144781,48.7819648 39.3473157,48.3627124 L33.3960234,45.2339329 C32.5220513,44.7744586 31.4779487,44.7744586 30.6039766,45.2339329 Z" id="星形" stroke-width="1.6" fill="#F5F7F9" transform="translate(32.000000, 32.000000) rotate(-17.000000) translate(-32.000000, -32.000000) "></path>
                        <path d="M50.0687768,49.6563614 L46.3216792,51.6263272 C44.9198248,52.3633257 43.185942,51.8243534 42.4489435,50.422499 C42.1554669,49.8642733 42.0541953,49.2248701 42.160807,48.6032765 L42.8764389,44.4308221 C43.0433527,43.4576399 42.7207073,42.4646393 42.013649,41.7754278 L38.9821834,38.8204791 C37.8480594,37.7149814 37.8248532,35.8994093 38.9303509,34.7652852 C39.3705659,34.3136711 39.9473798,34.0197697 40.5714952,33.9290804 L44.7608776,33.3203275 C45.7380081,33.1783422 46.5827049,32.564634 47.0196909,31.6792036 L48.8932397,27.8829791 C49.5941669,26.4627455 51.3137075,25.8796324 52.7339412,26.5805596 C53.2994856,26.8596725 53.7572478,27.3174347 54.0363607,27.8829791 L55.9099095,31.6792036 C56.3468955,32.564634 57.1915923,33.1783422 58.1687227,33.3203275 L62.3581052,33.9290804 C63.9254261,34.1568255 65.0113668,35.6120139 64.7836218,37.1793348 C64.6929325,37.8034502 64.3990311,38.3802641 63.947417,38.8204791 L60.9159514,41.7754278 C60.2088931,42.4646393 59.8862476,43.4576399 60.0531615,44.4308221 L60.7687934,48.6032765 C61.0365238,50.1642644 59.9881315,51.6467334 58.4271436,51.9144637 C57.8055501,52.0210754 57.1661469,51.9198038 56.6079212,51.6263272 L52.8608236,49.6563614 C51.9868515,49.1968871 50.9427489,49.1968871 50.0687768,49.6563614 Z" id="星形-copy" stroke-width="1.6" fill="#FFFFFF" transform="translate(51.464800, 40.172428) rotate(-345.000000) translate(-51.464800, -40.172428) "></path>
                        <path d="M38.3833597,27.4617381 C37.4010638,25.4875169 35.363112,24.1309948 33.0083274,24.1309948" id="形状" stroke-width="2" fill="#F5F7F9" transform="translate(35.695844, 25.796366) rotate(364.000000) translate(-35.695844, -25.796366) "></path>
                    </g>
                </g>
            </g>
        </g>
    </g>
</svg>