<?xml version="1.0" encoding="UTF-8"?>
<svg width="122px" height="104px" viewBox="0 0 122 104" version="1.1" xmlns="http://www.w3.org/2000/svg" xmlns:xlink="http://www.w3.org/1999/xlink">
    <!-- Generator: Sketch 55 (78076) - https://sketchapp.com -->
    <title>暂无相关内容</title>
    <desc>Created with Sketch.</desc>
    <g id="Page-1" stroke="none" stroke-width="1" fill="none" fill-rule="evenodd">
        <g id="空白页" transform="translate(-810.000000, -40.000000)">
            <g id="暂无相关内容" transform="translate(810.000000, 40.000000)">
                <g id="分组-10">
                    <g id="背景/线" fill="#C3CBD6">
                        <g id="-">
                            <g id="编组" transform="translate(14.200000, 9.200000)" fill-rule="nonzero">
                                <path d="M0.8,73.1 C0.3581722,73.1 -5.68434189e-14,72.7418278 -5.68434189e-14,72.3 C-5.68434189e-14,71.8581722 0.3581722,71.5 0.8,71.5 L70.8,71.5 C71.2418278,71.5 71.6,71.8581722 71.6,72.3 C71.6,72.7418278 71.2418278,73.1 70.8,73.1 L0.8,73.1 Z M74.8,73.1 C74.3581722,73.1 74,72.7418278 74,72.3 C74,71.8581722 74.3581722,71.5 74.8,71.5 L77.3,71.5 C77.7418278,71.5 78.1,71.8581722 78.1,72.3 C78.1,72.7418278 77.7418278,73.1 77.3,73.1 L74.8,73.1 Z M83.8,73.1 C83.3581722,73.1 83,72.7418278 83,72.3 C83,71.8581722 83.3581722,71.5 83.8,71.5 L92.8,71.5 C93.2418278,71.5 93.6,71.8581722 93.6,72.3 C93.6,72.7418278 93.2418278,73.1 92.8,73.1 L83.8,73.1 Z M23.8,80.6 C23.3581722,80.6 23,80.2418278 23,79.8 C23,79.3581722 23.3581722,79 23.8,79 L30.8,79 C31.2418278,79 31.6,79.3581722 31.6,79.8 C31.6,80.2418278 31.2418278,80.6 30.8,80.6 L23.8,80.6 Z M35.3,80.6 C34.8581722,80.6 34.5,80.2418278 34.5,79.8 C34.5,79.3581722 34.8581722,79 35.3,79 L65.8,79 C66.2418278,79 66.6,79.3581722 66.6,79.8 C66.6,80.2418278 66.2418278,80.6 65.8,80.6 L35.3,80.6 Z M80,52.8 C80,51.7333333 81.6,51.7333333 81.6,52.8 L81.6,55.8 C81.6,56.2418278 81.2418278,56.6 80.8,56.6 L77.8,56.6 C76.7333333,56.6 76.7333333,55 77.8,55 L80,55 L80,52.8 Z M81.6,58.8 C81.6,59.8666667 80,59.8666667 80,58.8 L80,55.8 C80,55.3581722 80.3581722,55 80.8,55 L83.8,55 C84.8666667,55 84.8666667,56.6 83.8,56.6 L81.6,56.6 L81.6,58.8 Z M4,28.8 C4,27.7333333 5.6,27.7333333 5.6,28.8 L5.6,31.8 C5.6,32.2418278 5.2418278,32.6 4.8,32.6 L1.8,32.6 C0.733333333,32.6 0.733333333,31 1.8,31 L4,31 L4,28.8 Z M78.1,3.5 L80.8,3.5 C81.8666667,3.5 81.8666667,5.1 80.8,5.1 L78.1,5.1 L78.1,7.8 C78.1,8.86666667 76.5,8.86666667 76.5,7.8 L76.5,5.1 L73.8,5.1 C72.7333333,5.1 72.7333333,3.5 73.8,3.5 L76.5,3.5 L76.5,0.8 C76.5,-0.266666667 78.1,-0.266666667 78.1,0.8 L78.1,3.5 Z M5.6,34.8 C5.6,35.8666667 4,35.8666667 4,34.8 L4,31.8 C4,31.3581722 4.3581722,31 4.8,31 L7.8,31 C8.86666667,31 8.86666667,32.6 7.8,32.6 L5.6,32.6 L5.6,34.8 Z" id="Path-2"></path>
                                <path d="M14.0928932,61.1431458 C14.5642977,60.6717412 15.2714045,61.378848 14.8,61.8502525 L13.7393398,62.9109127 C13.5440777,63.1061748 13.2274952,63.1061748 13.032233,62.9109127 L11.9715729,61.8502525 C11.5001684,61.378848 12.2072751,60.6717412 12.6786797,61.1431458 L13.3857864,61.8502525 L14.0928932,61.1431458 Z M12.6786797,63.9715729 C12.2072751,64.4429774 11.5001684,63.7358706 11.9715729,63.2644661 L13.032233,62.2038059 C13.2274952,62.0085438 13.5440777,62.0085438 13.7393398,62.2038059 L14.8,63.2644661 C15.2714045,63.7358706 14.5642977,64.4429774 14.0928932,63.9715729 L13.3857864,63.2644661 L12.6786797,63.9715729 Z M22.9213203,8.8 C23.3927249,8.32859548 24.0998316,9.03570226 23.6284271,9.50710678 L22.567767,10.567767 C22.3725048,10.7630291 22.0559223,10.7630291 21.8606602,10.567767 L20.8,9.50710678 C20.3285955,9.03570226 21.0357023,8.32859548 21.5071068,8.8 L22.2142136,9.50710678 L22.9213203,8.8 Z M21.5071068,11.6284271 C21.0357023,12.0998316 20.3285955,11.3927249 20.8,10.9213203 L21.8606602,9.86066017 C22.0559223,9.66539803 22.3725048,9.66539803 22.567767,9.86066017 L23.6284271,10.9213203 C24.0998316,11.3927249 23.3927249,12.0998316 22.9213203,11.6284271 L22.2142136,10.9213203 L21.5071068,11.6284271 Z" id="Path复制"></path>
                            </g>
                        </g>
                    </g>
                    <g id="Group-3" transform="translate(44.000000, 35.000000)">
                        <path d="M34,13 C34,14 34,36.3333333 34,38 C34,39.1045695 33.1045695,40 32,40 L2,40 C0.8954305,40 0,39.1045695 0,38 L0,2 C0,0.8954305 0.8954305,0 2,0 L22,0" id="Rectangle-4" fill="#FFFFFF"></path>
                        <path d="M32.4,34.2740684 L20.8679759,1.6 L2,1.6 C1.7790861,1.6 1.6,1.7790861 1.6,2 L1.6,38 C1.6,38.2209139 1.7790861,38.4 2,38.4 L32,38.4 C32.2209139,38.4 32.4,38.2209139 32.4,38 C32.4,35.8020565 32.4,35.6745225 32.4,34.2740684 Z" id="Rectangle-4-Copy-2" stroke="#C3CBD6" stroke-width="3.2"></path>
                        <polygon id="Path" fill="#C3CBD6" points="32.4 18.1816406 34 18.1816406 34 13 32.4 13"></polygon>
                        <path d="M22.8,2.0461204 L22.8,11 C22.8,11.6627417 23.3372583,12.2 24,12.2 L32.1728119,12.2 L22.8,2.0461204 Z" id="Rectangle-4-Copy" stroke="#C3CBD6" stroke-width="1.6"></path>
                        <path d="M28.3215504,35.1856504 L26.7016676,35.6531774 C26.1710415,35.8063255 25.6167329,35.5003191 25.4635847,34.969693 C25.4430553,34.8985626 25.4304883,34.8253725 25.4261148,34.7514681 L25.336907,33.2440116 C25.3243887,33.0324753 25.3793921,32.8224307 25.4939821,32.6441797 L33.7768855,19.7596633 C34.0755376,19.2950932 34.6942515,19.1605902 35.1588215,19.4592424 L36.8411785,20.5407576 C37.3057485,20.8394098 37.4402515,21.4581236 37.1415994,21.9226937 L28.8854296,34.7656244 C28.7545114,34.969275 28.5541576,35.1185158 28.3215504,35.1856504 Z" id="Path-10" stroke="#C3CBD6" fill="#F5F7F9" fill-rule="nonzero"></path>
                        <path d="M33,22 L35.5,23.5" id="Path-11" stroke="#C3CBD6" stroke-linecap="round"></path>
                        <path d="M10,19 L25,19" id="Path-9" stroke="#C3CBD6" stroke-width="1.4" stroke-linecap="round" stroke-linejoin="round"></path>
                        <path d="M10,24 L25,24" id="Path-9-Copy" stroke="#C3CBD6" stroke-width="1.4" stroke-linecap="round" stroke-linejoin="round"></path>
                        <path d="M10,30 L16,30 M19.5,30 L21,30" id="Path-9-Copy-2" stroke="#C3CBD6" stroke-width="1.4" stroke-linecap="round" stroke-linejoin="round"></path>
                    </g>
                </g>
            </g>
        </g>
    </g>
</svg>