<?xml version="1.0" encoding="UTF-8"?>
<svg width="122px" height="104px" viewBox="0 0 122 104" version="1.1" xmlns="http://www.w3.org/2000/svg" xmlns:xlink="http://www.w3.org/1999/xlink">
    <!-- Generator: Sketch 55 (78076) - https://sketchapp.com -->
    <title>暂无评论</title>
    <desc>Created with Sketch.</desc>
    <g id="Page-1" stroke="none" stroke-width="1" fill="none" fill-rule="evenodd">
        <g id="空白页" transform="translate(-502.000000, -664.000000)">
            <g id="暂无评论" transform="translate(502.000000, 664.000000)">
                <g id="分组-2">
                    <g id="背景/线" fill="#C3CBD6">
                        <g id="-">
                            <g id="编组" transform="translate(14.200000, 9.200000)" fill-rule="nonzero">
                                <path d="M0.8,73.1 C0.3581722,73.1 -5.68434189e-14,72.7418278 -5.68434189e-14,72.3 C-5.68434189e-14,71.8581722 0.3581722,71.5 0.8,71.5 L70.8,71.5 C71.2418278,71.5 71.6,71.8581722 71.6,72.3 C71.6,72.7418278 71.2418278,73.1 70.8,73.1 L0.8,73.1 Z M74.8,73.1 C74.3581722,73.1 74,72.7418278 74,72.3 C74,71.8581722 74.3581722,71.5 74.8,71.5 L77.3,71.5 C77.7418278,71.5 78.1,71.8581722 78.1,72.3 C78.1,72.7418278 77.7418278,73.1 77.3,73.1 L74.8,73.1 Z M83.8,73.1 C83.3581722,73.1 83,72.7418278 83,72.3 C83,71.8581722 83.3581722,71.5 83.8,71.5 L92.8,71.5 C93.2418278,71.5 93.6,71.8581722 93.6,72.3 C93.6,72.7418278 93.2418278,73.1 92.8,73.1 L83.8,73.1 Z M23.8,80.6 C23.3581722,80.6 23,80.2418278 23,79.8 C23,79.3581722 23.3581722,79 23.8,79 L30.8,79 C31.2418278,79 31.6,79.3581722 31.6,79.8 C31.6,80.2418278 31.2418278,80.6 30.8,80.6 L23.8,80.6 Z M35.3,80.6 C34.8581722,80.6 34.5,80.2418278 34.5,79.8 C34.5,79.3581722 34.8581722,79 35.3,79 L65.8,79 C66.2418278,79 66.6,79.3581722 66.6,79.8 C66.6,80.2418278 66.2418278,80.6 65.8,80.6 L35.3,80.6 Z M80,52.8 C80,51.7333333 81.6,51.7333333 81.6,52.8 L81.6,55.8 C81.6,56.2418278 81.2418278,56.6 80.8,56.6 L77.8,56.6 C76.7333333,56.6 76.7333333,55 77.8,55 L80,55 L80,52.8 Z M81.6,58.8 C81.6,59.8666667 80,59.8666667 80,58.8 L80,55.8 C80,55.3581722 80.3581722,55 80.8,55 L83.8,55 C84.8666667,55 84.8666667,56.6 83.8,56.6 L81.6,56.6 L81.6,58.8 Z M4,28.8 C4,27.7333333 5.6,27.7333333 5.6,28.8 L5.6,31.8 C5.6,32.2418278 5.2418278,32.6 4.8,32.6 L1.8,32.6 C0.733333333,32.6 0.733333333,31 1.8,31 L4,31 L4,28.8 Z M78.1,3.5 L80.8,3.5 C81.8666667,3.5 81.8666667,5.1 80.8,5.1 L78.1,5.1 L78.1,7.8 C78.1,8.86666667 76.5,8.86666667 76.5,7.8 L76.5,5.1 L73.8,5.1 C72.7333333,5.1 72.7333333,3.5 73.8,3.5 L76.5,3.5 L76.5,0.8 C76.5,-0.266666667 78.1,-0.266666667 78.1,0.8 L78.1,3.5 Z M5.6,34.8 C5.6,35.8666667 4,35.8666667 4,34.8 L4,31.8 C4,31.3581722 4.3581722,31 4.8,31 L7.8,31 C8.86666667,31 8.86666667,32.6 7.8,32.6 L5.6,32.6 L5.6,34.8 Z" id="Path-2"></path>
                                <path d="M14.0928932,61.1431458 C14.5642977,60.6717412 15.2714045,61.378848 14.8,61.8502525 L13.7393398,62.9109127 C13.5440777,63.1061748 13.2274952,63.1061748 13.032233,62.9109127 L11.9715729,61.8502525 C11.5001684,61.378848 12.2072751,60.6717412 12.6786797,61.1431458 L13.3857864,61.8502525 L14.0928932,61.1431458 Z M12.6786797,63.9715729 C12.2072751,64.4429774 11.5001684,63.7358706 11.9715729,63.2644661 L13.032233,62.2038059 C13.2274952,62.0085438 13.5440777,62.0085438 13.7393398,62.2038059 L14.8,63.2644661 C15.2714045,63.7358706 14.5642977,64.4429774 14.0928932,63.9715729 L13.3857864,63.2644661 L12.6786797,63.9715729 Z M22.9213203,8.8 C23.3927249,8.32859548 24.0998316,9.03570226 23.6284271,9.50710678 L22.567767,10.567767 C22.3725048,10.7630291 22.0559223,10.7630291 21.8606602,10.567767 L20.8,9.50710678 C20.3285955,9.03570226 21.0357023,8.32859548 21.5071068,8.8 L22.2142136,9.50710678 L22.9213203,8.8 Z M21.5071068,11.6284271 C21.0357023,12.0998316 20.3285955,11.3927249 20.8,10.9213203 L21.8606602,9.86066017 C22.0559223,9.66539803 22.3725048,9.66539803 22.567767,9.86066017 L23.6284271,10.9213203 C24.0998316,11.3927249 23.3927249,12.0998316 22.9213203,11.6284271 L22.2142136,10.9213203 L21.5071068,11.6284271 Z" id="Path复制"></path>
                            </g>
                        </g>
                    </g>
                    <g id="编组" transform="translate(34.000000, 26.000000)" stroke="#C3CBD6">
                        <g id="编组-2" transform="translate(20.000000, 0.000000)">
                            <path d="M30.009431,24 L27.7741927,26.6615957 C27.0638359,27.5074485 25.8022787,27.6172897 24.9564259,26.9069329 C24.8676943,26.8324151 24.7856065,26.7503272 24.7110887,26.6615957 L22.4758503,24 L3,24 C1.34314575,24 2.02906125e-16,22.6568542 0,21 L0,3 C-2.02906125e-16,1.34314575 1.34314575,3.04359188e-16 3,0 L33,0 C34.6568542,-3.04359188e-16 36,1.34314575 36,3 L36,21 C36,22.6568542 34.6568542,24 33,24 L30.009431,24 Z" id="矩形-2" stroke-width="1.6" fill="#F5F7F9"></path>
                            <path d="M10,14 C8.8954305,14 8,13.1045695 8,12 C8,10.8954305 8.8954305,10 10,10 C11.1045695,10 12,10.8954305 12,12 C12,13.1045695 11.1045695,14 10,14 Z M18,14 C16.8954305,14 16,13.1045695 16,12 C16,10.8954305 16.8954305,10 18,10 C19.1045695,10 20,10.8954305 20,12 C20,13.1045695 19.1045695,14 18,14 Z M26,14 C24.8954305,14 24,13.1045695 24,12 C24,10.8954305 24.8954305,10 26,10 C27.1045695,10 28,10.8954305 28,12 C28,13.1045695 27.1045695,14 26,14 Z" id="椭圆形-2复制" fill="#C3CBD6"></path>
                        </g>
                        <g id="编组-3" transform="translate(0.000000, 18.000000)">
                            <path d="M14.009431,24 L11.7741927,26.6615957 C11.0638359,27.5074485 9.8022787,27.6172897 8.95642589,26.9069329 C8.86769434,26.8324151 8.78560646,26.7503272 8.71108869,26.6615957 L6.47585035,24 L3,24 C1.34314575,24 2.02906125e-16,22.6568542 0,21 L0,3 C-2.02906125e-16,1.34314575 1.34314575,3.04359188e-16 3,0 L33,0 C34.6568542,-3.04359188e-16 36,1.34314575 36,3 L36,21 C36,22.6568542 34.6568542,24 33,24 L14.009431,24 Z" id="矩形复制-4" stroke-width="1.6" fill="#FFFFFF"></path>
                            <path d="M10,14 C8.8954305,14 8,13.1045695 8,12 C8,10.8954305 8.8954305,10 10,10 C11.1045695,10 12,10.8954305 12,12 C12,13.1045695 11.1045695,14 10,14 Z M18,14 C16.8954305,14 16,13.1045695 16,12 C16,10.8954305 16.8954305,10 18,10 C19.1045695,10 20,10.8954305 20,12 C20,13.1045695 19.1045695,14 18,14 Z M26,14 C24.8954305,14 24,13.1045695 24,12 C24,10.8954305 24.8954305,10 26,10 C27.1045695,10 28,10.8954305 28,12 C28,13.1045695 27.1045695,14 26,14 Z" id="椭圆形-2" fill="#C3CBD6"></path>
                        </g>
                    </g>
                </g>
            </g>
        </g>
    </g>
</svg>