<?xml version="1.0" encoding="UTF-8"?>
<svg width="122px" height="104px" viewBox="0 0 122 104" version="1.1" xmlns="http://www.w3.org/2000/svg" xmlns:xlink="http://www.w3.org/1999/xlink">
    <!-- Generator: Sketch 55 (78076) - https://sketchapp.com -->
    <title>支付</title>
    <desc>Created with Sketch.</desc>
    <g id="Page-1" stroke="none" stroke-width="1" fill="none" fill-rule="evenodd">
        <g id="空白页" transform="translate(-40.000000, -820.000000)">
            <g id="支付" transform="translate(40.000000, 820.000000)">
                <g id="分组-10">
                    <g id="背景/线" fill="#C3CBD6">
                        <g id="-">
                            <g id="编组" transform="translate(14.200000, 9.200000)" fill-rule="nonzero">
                                <path d="M0.8,73.1 C0.3581722,73.1 -5.68434189e-14,72.7418278 -5.68434189e-14,72.3 C-5.68434189e-14,71.8581722 0.3581722,71.5 0.8,71.5 L70.8,71.5 C71.2418278,71.5 71.6,71.8581722 71.6,72.3 C71.6,72.7418278 71.2418278,73.1 70.8,73.1 L0.8,73.1 Z M74.8,73.1 C74.3581722,73.1 74,72.7418278 74,72.3 C74,71.8581722 74.3581722,71.5 74.8,71.5 L77.3,71.5 C77.7418278,71.5 78.1,71.8581722 78.1,72.3 C78.1,72.7418278 77.7418278,73.1 77.3,73.1 L74.8,73.1 Z M83.8,73.1 C83.3581722,73.1 83,72.7418278 83,72.3 C83,71.8581722 83.3581722,71.5 83.8,71.5 L92.8,71.5 C93.2418278,71.5 93.6,71.8581722 93.6,72.3 C93.6,72.7418278 93.2418278,73.1 92.8,73.1 L83.8,73.1 Z M23.8,80.6 C23.3581722,80.6 23,80.2418278 23,79.8 C23,79.3581722 23.3581722,79 23.8,79 L30.8,79 C31.2418278,79 31.6,79.3581722 31.6,79.8 C31.6,80.2418278 31.2418278,80.6 30.8,80.6 L23.8,80.6 Z M35.3,80.6 C34.8581722,80.6 34.5,80.2418278 34.5,79.8 C34.5,79.3581722 34.8581722,79 35.3,79 L65.8,79 C66.2418278,79 66.6,79.3581722 66.6,79.8 C66.6,80.2418278 66.2418278,80.6 65.8,80.6 L35.3,80.6 Z M80,52.8 C80,51.7333333 81.6,51.7333333 81.6,52.8 L81.6,55.8 C81.6,56.2418278 81.2418278,56.6 80.8,56.6 L77.8,56.6 C76.7333333,56.6 76.7333333,55 77.8,55 L80,55 L80,52.8 Z M81.6,58.8 C81.6,59.8666667 80,59.8666667 80,58.8 L80,55.8 C80,55.3581722 80.3581722,55 80.8,55 L83.8,55 C84.8666667,55 84.8666667,56.6 83.8,56.6 L81.6,56.6 L81.6,58.8 Z M4,28.8 C4,27.7333333 5.6,27.7333333 5.6,28.8 L5.6,31.8 C5.6,32.2418278 5.2418278,32.6 4.8,32.6 L1.8,32.6 C0.733333333,32.6 0.733333333,31 1.8,31 L4,31 L4,28.8 Z M78.1,3.5 L80.8,3.5 C81.8666667,3.5 81.8666667,5.1 80.8,5.1 L78.1,5.1 L78.1,7.8 C78.1,8.86666667 76.5,8.86666667 76.5,7.8 L76.5,5.1 L73.8,5.1 C72.7333333,5.1 72.7333333,3.5 73.8,3.5 L76.5,3.5 L76.5,0.8 C76.5,-0.266666667 78.1,-0.266666667 78.1,0.8 L78.1,3.5 Z M5.6,34.8 C5.6,35.8666667 4,35.8666667 4,34.8 L4,31.8 C4,31.3581722 4.3581722,31 4.8,31 L7.8,31 C8.86666667,31 8.86666667,32.6 7.8,32.6 L5.6,32.6 L5.6,34.8 Z" id="Path-2"></path>
                                <path d="M14.0928932,61.1431458 C14.5642977,60.6717412 15.2714045,61.378848 14.8,61.8502525 L13.7393398,62.9109127 C13.5440777,63.1061748 13.2274952,63.1061748 13.032233,62.9109127 L11.9715729,61.8502525 C11.5001684,61.378848 12.2072751,60.6717412 12.6786797,61.1431458 L13.3857864,61.8502525 L14.0928932,61.1431458 Z M12.6786797,63.9715729 C12.2072751,64.4429774 11.5001684,63.7358706 11.9715729,63.2644661 L13.032233,62.2038059 C13.2274952,62.0085438 13.5440777,62.0085438 13.7393398,62.2038059 L14.8,63.2644661 C15.2714045,63.7358706 14.5642977,64.4429774 14.0928932,63.9715729 L13.3857864,63.2644661 L12.6786797,63.9715729 Z M22.9213203,8.8 C23.3927249,8.32859548 24.0998316,9.03570226 23.6284271,9.50710678 L22.567767,10.567767 C22.3725048,10.7630291 22.0559223,10.7630291 21.8606602,10.567767 L20.8,9.50710678 C20.3285955,9.03570226 21.0357023,8.32859548 21.5071068,8.8 L22.2142136,9.50710678 L22.9213203,8.8 Z M21.5071068,11.6284271 C21.0357023,12.0998316 20.3285955,11.3927249 20.8,10.9213203 L21.8606602,9.86066017 C22.0559223,9.66539803 22.3725048,9.66539803 22.567767,9.86066017 L23.6284271,10.9213203 C24.0998316,11.3927249 23.3927249,12.0998316 22.9213203,11.6284271 L22.2142136,10.9213203 L21.5071068,11.6284271 Z" id="Path复制"></path>
                            </g>
                        </g>
                    </g>
                    <g id="编组-2" transform="translate(34.000000, 24.824116)">
                        <g id="编组" transform="translate(26.324116, 17.500000) rotate(-43.000000) translate(-26.324116, -17.500000) translate(11.324116, 8.000000)" stroke="#C3CBD6" stroke-width="1.6">
                            <path d="M2,0 L28,0 C29.1045695,-2.02906125e-16 30,0.8954305 30,2 L30,17 C30,18.1045695 29.1045695,19 28,19 L2,19 C0.8954305,19 1.3527075e-16,18.1045695 0,17 L0,2 C-1.3527075e-16,0.8954305 0.8954305,2.02906125e-16 2,0 Z" id="矩形复制" fill="#F5F7F9"></path>
                            <path d="M4,15 L14,15" id="路径-4" stroke-linecap="round" stroke-linejoin="round"></path>
                            <path d="M4,12 L8,12" id="路径-4复制" stroke-linecap="round" stroke-linejoin="round"></path>
                            <polygon id="路径-4复制-2" fill="#FFFFFF" stroke-linecap="round" stroke-linejoin="round" points="1.70530257e-13 5 30 5 30 9 2.77111667e-13 9"></polygon>
                        </g>
                        <path d="M8,12.1758839 L46,12.1758839 C47.6568542,12.1758839 49,13.5190296 49,15.1758839 L49,41.1758839 C49,42.8327381 47.6568542,44.1758839 46,44.1758839 L8,44.1758839 C6.34314575,44.1758839 5,42.8327381 5,41.1758839 L5,15.1758839 C5,13.5190296 6.34314575,12.1758839 8,12.1758839 Z" id="矩形" stroke="#C3CBD6" stroke-width="1.6" fill="#FFFFFF"></path>
                        <path d="M42,23.1758839 L50,23.1758839 C51.6568542,23.1758839 53,24.5190296 53,26.1758839 L53,30.1758839 C53,31.8327381 51.6568542,33.1758839 50,33.1758839 L42,33.1758839 C39.2385763,33.1758839 37,30.9373076 37,28.1758839 L37,28.1758839 C37,25.4144601 39.2385763,23.1758839 42,23.1758839 Z" id="矩形复制-2" stroke="#C3CBD6" stroke-width="1.6" fill="#F5F7F9"></path>
                        <circle id="椭圆形" fill="#C3CBD6" cx="43" cy="28.1758839" r="2"></circle>
                        <circle id="椭圆形" stroke="#C3CBD6" stroke-width="1.6" fill="#F5F7F9" cx="12" cy="36.1758839" r="12"></circle>
                        <path d="M12.9079135,28.2078839 L12.9079135,30.1438839 C14.0599192,30.2612178 15.0305762,30.570548 15.8199135,31.0718839 L14.6359135,33.3758839 C13.9532434,32.8532146 13.2812501,32.5918839 12.6199135,32.5918839 C12.2145781,32.5918839 11.8839148,32.6852163 11.6279135,32.8718839 C11.3719122,33.0585515 11.2439135,33.269216 11.2439135,33.5038839 C11.2439135,33.7172183 11.3452458,33.9198829 11.5479135,34.1118839 C11.7505812,34.3038848 12.0172452,34.4585499 12.3479135,34.5758839 L13.2919135,34.8958839 C14.3479188,35.2585523 15.1105778,35.7038812 15.5799135,36.2318839 C16.0492492,36.7598865 16.2839135,37.445213 16.2839135,38.2878839 C16.2839135,38.7998864 16.2252474,39.2532152 16.1079135,39.6478839 C15.9905796,40.0425525 15.7985815,40.394549 15.5319135,40.7038839 C15.2652455,41.0132187 14.9159156,41.285216 14.4839135,41.5198839 C14.0519113,41.7545517 13.5265832,41.9678829 12.9079135,42.1598839 L12.9079135,44.1438839 L11.4359135,44.1438839 L11.4359135,42.2398839 C11.1052452,42.2398839 10.7532487,42.1998843 10.3799135,42.1198839 C10.0065783,42.0398835 9.63858197,41.9332179 9.27591349,41.7998839 C8.91324501,41.6665499 8.57458173,41.5118847 8.25991349,41.3358839 C7.94524525,41.159883 7.68658117,40.9758848 7.48391349,40.7838839 L8.77991349,38.3678839 C9.78258517,39.2532216 10.7585754,39.6958839 11.7079135,39.6958839 C12.1025821,39.6958839 12.4465787,39.5892183 12.7399135,39.3758839 C13.0332483,39.1625495 13.1799135,38.8852189 13.1799135,38.5438839 C13.1799135,38.0745482 12.8332503,37.727885 12.1399135,37.5038839 L11.2279135,37.2158839 C10.6839108,37.0452163 10.2199154,36.8585515 9.83591349,36.6558839 C9.45191157,36.4532162 9.13724805,36.2185519 8.89191349,35.9518839 C8.64657893,35.6852159 8.46524741,35.3838855 8.34791349,35.0478839 C8.23057957,34.7118822 8.17191349,34.3252194 8.17191349,33.8878839 C8.17191349,33.4292149 8.23857949,32.9865527 8.37191349,32.5598839 C8.50524749,32.1332151 8.70791213,31.7518855 8.97991349,31.4158839 C9.25191485,31.0798822 9.59057813,30.7972183 9.99591349,30.5678839 C10.4012488,30.3385494 10.881244,30.1972175 11.4359135,30.1438839 L11.4359135,28.2078839 L12.9079135,28.2078839 Z" id="$" fill="#C3CBD6" fill-rule="nonzero"></path>
                    </g>
                </g>
            </g>
        </g>
    </g>
</svg>