<?xml version="1.0" encoding="UTF-8"?>
<svg width="122px" height="104px" viewBox="0 0 122 104" version="1.1" xmlns="http://www.w3.org/2000/svg" xmlns:xlink="http://www.w3.org/1999/xlink">
    <!-- Generator: Sketch 55 (78076) - https://sketchapp.com -->
    <title>暂无权限</title>
    <desc>Created with Sketch.</desc>
    <g id="Page-1" stroke="none" stroke-width="1" fill="none" fill-rule="evenodd">
        <g id="空白页" transform="translate(-40.000000, -352.000000)">
            <g id="暂无权限" transform="translate(40.000000, 352.000000)">
                <g id="分组-4">
                    <path d="M15,82.3 C14.5581722,82.3 14.2,81.9418278 14.2,81.5 C14.2,81.0581722 14.5581722,80.7 15,80.7 L85,80.7 C85.4418278,80.7 85.8,81.0581722 85.8,81.5 C85.8,81.9418278 85.4418278,82.3 85,82.3 L15,82.3 Z M89,82.3 C88.5581722,82.3 88.2,81.9418278 88.2,81.5 C88.2,81.0581722 88.5581722,80.7 89,80.7 L91.5,80.7 C91.9418278,80.7 92.3,81.0581722 92.3,81.5 C92.3,81.9418278 91.9418278,82.3 91.5,82.3 L89,82.3 Z M98,82.3 C97.5581722,82.3 97.2,81.9418278 97.2,81.5 C97.2,81.0581722 97.5581722,80.7 98,80.7 L107,80.7 C107.441828,80.7 107.8,81.0581722 107.8,81.5 C107.8,81.9418278 107.441828,82.3 107,82.3 L98,82.3 Z M38,89.8 C37.5581722,89.8 37.2,89.4418278 37.2,89 C37.2,88.5581722 37.5581722,88.2 38,88.2 L45,88.2 C45.4418278,88.2 45.8,88.5581722 45.8,89 C45.8,89.4418278 45.4418278,89.8 45,89.8 L38,89.8 Z M49.5,89.8 C49.0581722,89.8 48.7,89.4418278 48.7,89 C48.7,88.5581722 49.0581722,88.2 49.5,88.2 L80,88.2 C80.4418278,88.2 80.8,88.5581722 80.8,89 C80.8,89.4418278 80.4418278,89.8 80,89.8 L49.5,89.8 Z M94.2,62 C94.2,60.9333333 95.8,60.9333333 95.8,62 L95.8,65 C95.8,65.4418278 95.4418278,65.8 95,65.8 L92,65.8 C90.9333333,65.8 90.9333333,64.2 92,64.2 L94.2,64.2 L94.2,62 Z M95.8,68 C95.8,69.0666667 94.2,69.0666667 94.2,68 L94.2,65 C94.2,64.5581722 94.5581722,64.2 95,64.2 L98,64.2 C99.0666667,64.2 99.0666667,65.8 98,65.8 L95.8,65.8 L95.8,68 Z M18.2,38 C18.2,36.9333333 19.8,36.9333333 19.8,38 L19.8,41 C19.8,41.4418278 19.4418278,41.8 19,41.8 L16,41.8 C14.9333333,41.8 14.9333333,40.2 16,40.2 L18.2,40.2 L18.2,38 Z M92.3,12.7 L95,12.7 C96.0666667,12.7 96.0666667,14.3 95,14.3 L92.3,14.3 L92.3,17 C92.3,18.0666667 90.7,18.0666667 90.7,17 L90.7,14.3 L88,14.3 C86.9333333,14.3 86.9333333,12.7 88,12.7 L90.7,12.7 L90.7,10 C90.7,8.93333333 92.3,8.93333333 92.3,10 L92.3,12.7 Z M19.8,44 C19.8,45.0666667 18.2,45.0666667 18.2,44 L18.2,41 C18.2,40.5581722 18.5581722,40.2 19,40.2 L22,40.2 C23.0666667,40.2 23.0666667,41.8 22,41.8 L19.8,41.8 L19.8,44 Z M28.2928932,70.3431458 C28.7642977,69.8717412 29.4714045,70.578848 29,71.0502525 L27.9393398,72.1109127 C27.7440777,72.3061748 27.4274952,72.3061748 27.232233,72.1109127 L26.1715729,71.0502525 C25.7001684,70.578848 26.4072751,69.8717412 26.8786797,70.3431458 L27.5857864,71.0502525 L28.2928932,70.3431458 Z M26.8786797,73.1715729 C26.4072751,73.6429774 25.7001684,72.9358706 26.1715729,72.4644661 L27.232233,71.4038059 C27.4274952,71.2085438 27.7440777,71.2085438 27.9393398,71.4038059 L29,72.4644661 C29.4714045,72.9358706 28.7642977,73.6429774 28.2928932,73.1715729 L27.5857864,72.4644661 L26.8786797,73.1715729 Z M54.1213203,22 C54.5927249,21.5285955 55.2998316,22.2357023 54.8284271,22.7071068 L53.767767,23.767767 C53.5725048,23.9630291 53.2559223,23.9630291 53.0606602,23.767767 L52,22.7071068 C51.5285955,22.2357023 52.2357023,21.5285955 52.7071068,22 L53.4142136,22.7071068 L54.1213203,22 Z M52.7071068,24.8284271 C52.2357023,25.2998316 51.5285955,24.5927249 52,24.1213203 L53.0606602,23.0606602 C53.2559223,22.865398 53.5725048,22.865398 53.767767,23.0606602 L54.8284271,24.1213203 C55.2998316,24.5927249 54.5927249,25.2998316 54.1213203,24.8284271 L53.4142136,24.1213203 L52.7071068,24.8284271 Z" id="Path" fill="#C3CBD6" fill-rule="nonzero"></path>
                    <g id="分组" transform="translate(35.000000, 35.000000)">
                        <path d="M2,0 L50,0 C51.1045695,-2.02906125e-16 52,0.8954305 52,2 L52,36 C52,37.1045695 51.1045695,38 50,38 L2,38 C0.8954305,38 1.3527075e-16,37.1045695 0,36 L0,2 C-1.3527075e-16,0.8954305 0.8954305,2.02906125e-16 2,0 Z" id="矩形" stroke="#C3CBD6" stroke-width="1.6" fill="#FFFFFF" stroke-linecap="round" stroke-linejoin="round"></path>
                        <g id="Group-7" transform="translate(19.000000, 16.000000)">
                            <path d="M11.3076923,7 L11.3076923,2.15384615 C11.3076923,0.964384615 10.3433077,0 9.15384615,0 L4.84615385,0 C3.65669231,0 2.69230769,0.964384615 2.69230769,2.15384615 L2.69230769,7" id="Stroke-3" stroke="#C3CBD6" stroke-width="1.63333333" stroke-linecap="round" stroke-linejoin="round"></path>
                            <path d="M12.9230769,7 L1.07692308,7 C0.482461538,7 0,7.48246154 0,8.07692308 L0,12.9230769 C0,13.5175385 0.482461538,14 1.07692308,14 L12.9230769,14 C13.5175385,14 14,13.5175385 14,12.9230769 L14,8.07692308 C14,7.48246154 13.5175385,7 12.9230769,7 Z" id="Stroke-1" stroke="#C3CBD6" stroke-width="1.16666667" fill="#F5F7F9" stroke-linecap="round" stroke-linejoin="round"></path>
                            <path d="M6.84709814,10.15 L7.15290186,10.15 C7.31868836,10.15 7.46173214,10.2663143 7.495545,10.428616 L7.78721167,11.828616 C7.82663596,12.0178526 7.7051891,12.2032189 7.51595251,12.2426431 C7.49247276,12.2475348 7.4685524,12.25 7.44456852,12.25 L6.55543148,12.25 C6.36213182,12.25 6.20543148,12.0932997 6.20543148,11.9 C6.20543148,11.8760161 6.20789672,11.8520958 6.21278833,11.828616 L6.504455,10.428616 C6.53826786,10.2663143 6.68131164,10.15 6.84709814,10.15 Z" id="Path" fill="#C3CBD6"></path>
                        </g>
                        <path d="M2,0 L50,0 C51.1045695,-2.02906125e-16 52,0.8954305 52,2 L52,7 L0,7 L0,2 C-1.3527075e-16,0.8954305 0.8954305,2.02906125e-16 2,0 Z" id="矩形-copy" stroke="#C3CBD6" stroke-width="1.6" fill="#F5F7F9" stroke-linecap="round" stroke-linejoin="round"></path>
                        <circle id="椭圆形" fill="#C3CBD6" cx="10.5" cy="3.5" r="1.5"></circle>
                        <path d="M4.49841309,3.04333496 L4.49841309,2.04333496 C4.49841309,1.76719259 4.72227071,1.54333496 4.99841309,1.54333496 C5.27455546,1.54333496 5.49841309,1.76719259 5.49841309,2.04333496 L5.49841309,3.04333496 L6.49841309,3.04333496 C6.77455546,3.04333496 6.99841309,3.26719259 6.99841309,3.54333496 C6.99841309,3.81947734 6.77455546,4.04333496 6.49841309,4.04333496 L5.49841309,4.04333496 L5.49841309,5.04333496 C5.49841309,5.31947734 5.27455546,5.54333496 4.99841309,5.54333496 C4.72227071,5.54333496 4.49841309,5.31947734 4.49841309,5.04333496 L4.49841309,4.04333496 L3.49841309,4.04333496 C3.22227071,4.04333496 2.99841309,3.81947734 2.99841309,3.54333496 C2.99841309,3.26719259 3.22227071,3.04333496 3.49841309,3.04333496 L4.49841309,3.04333496 Z" id="路径" fill="#C3CBD6" fill-rule="nonzero" transform="translate(4.998413, 3.543335) rotate(-45.000000) translate(-4.998413, -3.543335) "></path>
                    </g>
                </g>
            </g>
        </g>
    </g>
</svg>